<?xml version="1.0" encoding="UTF-8" standalone="no"?>
<!DOCTYPE svg PUBLIC "-//W3C//DTD SVG 1.1//EN" "http://www.w3.org/Graphics/SVG/1.1/DTD/svg11.dtd">
<svg width="100%" height="100%" viewBox="0 0 410 404" version="1.1" xmlns="http://www.w3.org/2000/svg" xmlns:xlink="http://www.w3.org/1999/xlink" xml:space="preserve" xmlns:serif="http://www.serif.com/" style="fill-rule:evenodd;clip-rule:evenodd;stroke-linejoin:round;stroke-miterlimit:2;">
    <g transform="matrix(7.75861,0,0,7.75861,-835.619,22.4185)">
        <path d="M147.508,25.342L147.508,35.142L120.402,35.142L120.402,25.342C115.998,25.342 112.609,21.964 112.609,17.571C112.609,13.178 115.998,9.799 120.402,9.799C123.452,9.799 126.162,11.489 127.518,14.192L130.906,12.502C129.889,10.813 128.873,9.123 127.179,8.11C128.534,5.744 130.906,4.055 133.955,4.055C138.36,4.055 141.748,7.434 141.748,11.827C141.748,13.178 141.409,14.53 140.732,15.881L144.12,17.909C145.137,16.219 145.814,14.192 145.814,11.827L145.814,10.137C146.492,9.799 147.169,9.799 147.847,9.799C152.252,9.799 155.64,13.178 155.64,17.571C155.64,21.964 151.913,25.342 147.508,25.342ZM147.508,42.913L120.402,42.913L120.402,39.196L147.508,39.196L147.508,42.913ZM147.508,6.082C146.492,6.082 145.475,6.42 144.12,6.42C142.087,2.703 138.36,0 133.955,0C129.551,0 125.485,2.365 123.791,6.42C122.774,6.082 121.758,6.082 120.402,6.082C113.965,6.082 108.882,11.151 108.882,17.571C108.882,22.639 112.271,27.032 116.675,28.384L116.675,46.292L151.574,46.292L151.574,28.721C155.979,27.032 159.367,22.977 159.367,17.909C159.367,11.489 153.946,6.082 147.508,6.082ZM130.228,31.087L126.501,31.087L126.501,23.653L130.228,23.653L130.228,31.087ZM141.748,31.087L138.021,31.087L138.021,23.653L141.748,23.653L141.748,31.087Z" style="fill:rgb(208,79,79);"/>
    </g>
</svg>
